<mxfile host="app.diagrams.net" modified="2021-10-25T10:39:47.255Z" agent="5.0 (Windows NT 10.0; Win64; x64) AppleWebKit/537.36 (KHTML, like Gecko) Chrome/95.0.4638.54 Safari/537.36" etag="8roNpB-RyC6qSvcFPdYv" version="15.5.9" type="github">
  <diagram id="DGmw9K7GIaKPzrlbkwIC" name="Page-1">
    <mxGraphModel dx="1286" dy="644" grid="1" gridSize="10" guides="1" tooltips="1" connect="1" arrows="1" fold="1" page="1" pageScale="1" pageWidth="1600" pageHeight="900" math="0" shadow="0">
      <root>
        <mxCell id="0" />
        <mxCell id="1" parent="0" />
        <mxCell id="qrfRz9lv0cAQo2jDePgL-1" value="OBJETOS" style="swimlane;fontStyle=0;childLayout=stackLayout;horizontal=1;startSize=30;horizontalStack=0;resizeParent=1;resizeParentMax=0;resizeLast=0;collapsible=1;marginBottom=0;" parent="1" vertex="1">
          <mxGeometry x="540" y="734" width="140" height="96" as="geometry" />
        </mxCell>
        <mxCell id="qrfRz9lv0cAQo2jDePgL-3" value="Imagen" style="text;strokeColor=none;fillColor=none;align=center;verticalAlign=middle;spacingLeft=4;spacingRight=4;overflow=hidden;points=[[0,0.5],[1,0.5]];portConstraint=eastwest;rotatable=0;" parent="qrfRz9lv0cAQo2jDePgL-1" vertex="1">
          <mxGeometry y="30" width="140" height="30" as="geometry" />
        </mxCell>
        <mxCell id="QToZWzW9HsHZbET4avzT-18" value="Clickeable" style="text;strokeColor=default;fillColor=none;align=center;verticalAlign=middle;spacingLeft=4;spacingRight=4;overflow=hidden;rotatable=0;points=[[0,0.5],[1,0.5]];portConstraint=eastwest;" parent="qrfRz9lv0cAQo2jDePgL-1" vertex="1">
          <mxGeometry y="60" width="140" height="36" as="geometry" />
        </mxCell>
        <mxCell id="qrfRz9lv0cAQo2jDePgL-4" value="NPCs Puzles" style="swimlane;fontStyle=0;childLayout=stackLayout;horizontal=1;startSize=30;horizontalStack=0;resizeParent=1;resizeParentMax=0;resizeLast=0;collapsible=1;marginBottom=0;" parent="1" vertex="1">
          <mxGeometry x="380" y="1140" width="140" height="90" as="geometry">
            <mxRectangle y="1120" width="60" height="30" as="alternateBounds" />
          </mxGeometry>
        </mxCell>
        <mxCell id="qrfRz9lv0cAQo2jDePgL-6" value="  " style="text;strokeColor=default;fillColor=none;align=center;verticalAlign=middle;spacingLeft=4;spacingRight=4;overflow=hidden;points=[[0,0.5],[1,0.5]];portConstraint=eastwest;rotatable=0;" parent="qrfRz9lv0cAQo2jDePgL-4" vertex="1">
          <mxGeometry y="30" width="140" height="30" as="geometry" />
        </mxCell>
        <mxCell id="qrfRz9lv0cAQo2jDePgL-7" value="Desbloquea &#xa;puzles" style="text;strokeColor=none;fillColor=none;align=center;verticalAlign=middle;spacingLeft=4;spacingRight=4;overflow=hidden;points=[[0,0.5],[1,0.5]];portConstraint=eastwest;rotatable=0;" parent="qrfRz9lv0cAQo2jDePgL-4" vertex="1">
          <mxGeometry y="60" width="140" height="30" as="geometry" />
        </mxCell>
        <mxCell id="qrfRz9lv0cAQo2jDePgL-8" value="ITEMS" style="swimlane;fontStyle=0;childLayout=stackLayout;horizontal=1;startSize=30;horizontalStack=0;resizeParent=1;resizeParentMax=0;resizeLast=0;collapsible=1;marginBottom=0;" parent="1" vertex="1">
          <mxGeometry x="740" y="1072" width="140" height="120" as="geometry" />
        </mxCell>
        <mxCell id="qrfRz9lv0cAQo2jDePgL-9" value="  " style="text;strokeColor=default;fillColor=none;align=center;verticalAlign=middle;spacingLeft=4;spacingRight=4;overflow=hidden;points=[[0,0.5],[1,0.5]];portConstraint=eastwest;rotatable=0;" parent="qrfRz9lv0cAQo2jDePgL-8" vertex="1">
          <mxGeometry y="30" width="140" height="30" as="geometry" />
        </mxCell>
        <mxCell id="qrfRz9lv0cAQo2jDePgL-10" value="Cambio de puntuación/&#xa;paso de escenario&#xa; a inventario" style="text;strokeColor=none;fillColor=none;align=center;verticalAlign=middle;spacingLeft=4;spacingRight=4;overflow=hidden;points=[[0,0.5],[1,0.5]];portConstraint=eastwest;rotatable=0;" parent="qrfRz9lv0cAQo2jDePgL-8" vertex="1">
          <mxGeometry y="60" width="140" height="60" as="geometry" />
        </mxCell>
        <mxCell id="qrfRz9lv0cAQo2jDePgL-12" value="GAME MANAGER" style="swimlane;fontStyle=0;childLayout=stackLayout;horizontal=1;startSize=30;horizontalStack=0;resizeParent=1;resizeParentMax=0;resizeLast=0;collapsible=1;marginBottom=0;" parent="1" vertex="1">
          <mxGeometry x="760" y="744" width="140" height="90" as="geometry">
            <mxRectangle x="540" y="20" width="130" height="30" as="alternateBounds" />
          </mxGeometry>
        </mxCell>
        <mxCell id="qrfRz9lv0cAQo2jDePgL-15" value="Tiempo/Puntuación" style="text;strokeColor=none;fillColor=none;align=center;verticalAlign=middle;spacingLeft=4;spacingRight=4;overflow=hidden;points=[[0,0.5],[1,0.5]];portConstraint=eastwest;rotatable=0;" parent="qrfRz9lv0cAQo2jDePgL-12" vertex="1">
          <mxGeometry y="30" width="140" height="30" as="geometry" />
        </mxCell>
        <mxCell id="qrfRz9lv0cAQo2jDePgL-13" value="Control de&#xa;escenas/misiones" style="text;strokeColor=default;fillColor=none;align=center;verticalAlign=middle;spacingLeft=4;spacingRight=4;overflow=hidden;points=[[0,0.5],[1,0.5]];portConstraint=eastwest;rotatable=0;" parent="qrfRz9lv0cAQo2jDePgL-12" vertex="1">
          <mxGeometry y="60" width="140" height="30" as="geometry" />
        </mxCell>
        <mxCell id="qrfRz9lv0cAQo2jDePgL-16" value="ESCENA" style="swimlane;fontStyle=0;childLayout=stackLayout;horizontal=1;startSize=30;horizontalStack=0;resizeParent=1;resizeParentMax=0;resizeLast=0;collapsible=1;marginBottom=0;" parent="1" vertex="1">
          <mxGeometry x="985" y="658" width="140" height="86" as="geometry" />
        </mxCell>
        <mxCell id="qrfRz9lv0cAQo2jDePgL-17" value="Imagen" style="text;strokeColor=none;fillColor=none;align=center;verticalAlign=middle;spacingLeft=4;spacingRight=4;overflow=hidden;points=[[0,0.5],[1,0.5]];portConstraint=eastwest;rotatable=0;" parent="qrfRz9lv0cAQo2jDePgL-16" vertex="1">
          <mxGeometry y="30" width="140" height="30" as="geometry" />
        </mxCell>
        <mxCell id="QToZWzW9HsHZbET4avzT-53" value="  " style="text;strokeColor=default;fillColor=none;align=left;verticalAlign=top;spacingLeft=4;spacingRight=4;overflow=hidden;rotatable=0;points=[[0,0.5],[1,0.5]];portConstraint=eastwest;" parent="qrfRz9lv0cAQo2jDePgL-16" vertex="1">
          <mxGeometry y="60" width="140" height="26" as="geometry" />
        </mxCell>
        <mxCell id="qrfRz9lv0cAQo2jDePgL-19" value="ESCENAS MENÚ" style="swimlane;fontStyle=0;childLayout=stackLayout;horizontal=1;startSize=30;horizontalStack=0;resizeParent=1;resizeParentMax=0;resizeLast=0;collapsible=1;marginBottom=0;" parent="1" vertex="1">
          <mxGeometry x="985" y="924" width="140" height="86" as="geometry" />
        </mxCell>
        <mxCell id="qrfRz9lv0cAQo2jDePgL-20" value="Botones" style="text;strokeColor=none;fillColor=none;align=center;verticalAlign=middle;spacingLeft=4;spacingRight=4;overflow=hidden;points=[[0,0.5],[1,0.5]];portConstraint=eastwest;rotatable=0;" parent="qrfRz9lv0cAQo2jDePgL-19" vertex="1">
          <mxGeometry y="30" width="140" height="30" as="geometry" />
        </mxCell>
        <mxCell id="QToZWzW9HsHZbET4avzT-57" value="  " style="text;strokeColor=default;fillColor=none;align=left;verticalAlign=top;spacingLeft=4;spacingRight=4;overflow=hidden;rotatable=0;points=[[0,0.5],[1,0.5]];portConstraint=eastwest;" parent="qrfRz9lv0cAQo2jDePgL-19" vertex="1">
          <mxGeometry y="60" width="140" height="26" as="geometry" />
        </mxCell>
        <mxCell id="qrfRz9lv0cAQo2jDePgL-22" value="ESCENAS JUEGO" style="swimlane;fontStyle=0;childLayout=stackLayout;horizontal=1;startSize=30;horizontalStack=0;resizeParent=1;resizeParentMax=0;resizeLast=0;collapsible=1;marginBottom=0;" parent="1" vertex="1">
          <mxGeometry x="1130" y="804" width="140" height="90" as="geometry" />
        </mxCell>
        <mxCell id="qrfRz9lv0cAQo2jDePgL-23" value="  " style="text;strokeColor=default;fillColor=none;align=center;verticalAlign=middle;spacingLeft=4;spacingRight=4;overflow=hidden;points=[[0,0.5],[1,0.5]];portConstraint=eastwest;rotatable=0;" parent="qrfRz9lv0cAQo2jDePgL-22" vertex="1">
          <mxGeometry y="30" width="140" height="30" as="geometry" />
        </mxCell>
        <mxCell id="qrfRz9lv0cAQo2jDePgL-24" value="Carga/controla objetos" style="text;strokeColor=none;fillColor=none;align=center;verticalAlign=middle;spacingLeft=4;spacingRight=4;overflow=hidden;points=[[0,0.5],[1,0.5]];portConstraint=eastwest;rotatable=0;" parent="qrfRz9lv0cAQo2jDePgL-22" vertex="1">
          <mxGeometry y="60" width="140" height="30" as="geometry" />
        </mxCell>
        <mxCell id="qrfRz9lv0cAQo2jDePgL-25" value="PUZLES CON INPUT" style="swimlane;fontStyle=0;childLayout=stackLayout;horizontal=1;startSize=30;horizontalStack=0;resizeParent=1;resizeParentMax=0;resizeLast=0;collapsible=1;marginBottom=0;" parent="1" vertex="1">
          <mxGeometry x="870" y="1254" width="140" height="90" as="geometry" />
        </mxCell>
        <mxCell id="qrfRz9lv0cAQo2jDePgL-26" value="  " style="text;strokeColor=default;fillColor=none;align=left;verticalAlign=middle;spacingLeft=4;spacingRight=4;overflow=hidden;points=[[0,0.5],[1,0.5]];portConstraint=eastwest;rotatable=0;" parent="qrfRz9lv0cAQo2jDePgL-25" vertex="1">
          <mxGeometry y="30" width="140" height="30" as="geometry" />
        </mxCell>
        <mxCell id="qrfRz9lv0cAQo2jDePgL-27" value="Procesamiento/lectura&#xa; del input" style="text;strokeColor=none;fillColor=none;align=center;verticalAlign=middle;spacingLeft=4;spacingRight=4;overflow=hidden;points=[[0,0.5],[1,0.5]];portConstraint=eastwest;rotatable=0;" parent="qrfRz9lv0cAQo2jDePgL-25" vertex="1">
          <mxGeometry y="60" width="140" height="30" as="geometry" />
        </mxCell>
        <mxCell id="qrfRz9lv0cAQo2jDePgL-33" value="PUZLES CON &#xa;ACTUALIZACION&#xa; DE OBJETOS" style="swimlane;fontStyle=0;childLayout=stackLayout;horizontal=1;startSize=60;horizontalStack=0;resizeParent=1;resizeParentMax=0;resizeLast=0;collapsible=1;marginBottom=0;" parent="1" vertex="1">
          <mxGeometry x="1100" y="1234" width="140" height="116" as="geometry" />
        </mxCell>
        <mxCell id="qrfRz9lv0cAQo2jDePgL-34" value="Array con los objetos" style="text;strokeColor=default;fillColor=none;align=center;verticalAlign=middle;spacingLeft=4;spacingRight=4;overflow=hidden;points=[[0,0.5],[1,0.5]];portConstraint=eastwest;rotatable=0;" parent="qrfRz9lv0cAQo2jDePgL-33" vertex="1">
          <mxGeometry y="60" width="140" height="30" as="geometry" />
        </mxCell>
        <mxCell id="QToZWzW9HsHZbET4avzT-44" value="  " style="text;strokeColor=none;fillColor=none;align=left;verticalAlign=top;spacingLeft=4;spacingRight=4;overflow=hidden;rotatable=0;points=[[0,0.5],[1,0.5]];portConstraint=eastwest;" parent="qrfRz9lv0cAQo2jDePgL-33" vertex="1">
          <mxGeometry y="90" width="140" height="26" as="geometry" />
        </mxCell>
        <mxCell id="QToZWzW9HsHZbET4avzT-2" value="OBJETOS DE JUEGO" style="swimlane;fontStyle=0;childLayout=stackLayout;horizontal=1;startSize=30;horizontalStack=0;resizeParent=1;resizeParentMax=0;resizeLast=0;collapsible=1;marginBottom=0;" parent="1" vertex="1">
          <mxGeometry x="460" y="914" width="140" height="86" as="geometry">
            <mxRectangle x="90" y="910" width="150" height="30" as="alternateBounds" />
          </mxGeometry>
        </mxCell>
        <mxCell id="QToZWzW9HsHZbET4avzT-46" value="  " style="text;strokeColor=none;fillColor=none;align=left;verticalAlign=top;spacingLeft=4;spacingRight=4;overflow=hidden;rotatable=0;points=[[0,0.5],[1,0.5]];portConstraint=eastwest;" parent="QToZWzW9HsHZbET4avzT-2" vertex="1">
          <mxGeometry y="30" width="140" height="26" as="geometry" />
        </mxCell>
        <mxCell id="QToZWzW9HsHZbET4avzT-3" value="LLamada a diálogos" style="text;strokeColor=default;fillColor=none;align=center;verticalAlign=middle;spacingLeft=4;spacingRight=4;overflow=hidden;points=[[0,0.5],[1,0.5]];portConstraint=eastwest;rotatable=0;" parent="QToZWzW9HsHZbET4avzT-2" vertex="1">
          <mxGeometry y="56" width="140" height="30" as="geometry" />
        </mxCell>
        <mxCell id="QToZWzW9HsHZbET4avzT-15" value="Llama" style="endArrow=block;endFill=1;html=1;edgeStyle=orthogonalEdgeStyle;align=left;verticalAlign=top;rounded=0;exitX=1;exitY=0.5;exitDx=0;exitDy=0;entryX=0;entryY=0.5;entryDx=0;entryDy=0;" parent="1" source="qrfRz9lv0cAQo2jDePgL-3" edge="1">
          <mxGeometry x="-0.4706" relative="1" as="geometry">
            <mxPoint x="760" y="1044" as="sourcePoint" />
            <mxPoint x="760" y="819" as="targetPoint" />
            <Array as="points">
              <mxPoint x="730" y="779" />
              <mxPoint x="730" y="819" />
            </Array>
            <mxPoint as="offset" />
          </mxGeometry>
        </mxCell>
        <mxCell id="QToZWzW9HsHZbET4avzT-16" value="1" style="edgeLabel;resizable=0;html=1;align=left;verticalAlign=bottom;" parent="QToZWzW9HsHZbET4avzT-15" connectable="0" vertex="1">
          <mxGeometry x="-1" relative="1" as="geometry" />
        </mxCell>
        <mxCell id="QToZWzW9HsHZbET4avzT-25" value="Hereda" style="endArrow=block;endSize=16;endFill=0;html=1;rounded=0;exitX=0.5;exitY=0;exitDx=0;exitDy=0;entryX=0.486;entryY=1.033;entryDx=0;entryDy=0;entryPerimeter=0;" parent="1" source="qrfRz9lv0cAQo2jDePgL-4" target="QToZWzW9HsHZbET4avzT-3" edge="1">
          <mxGeometry x="-0.4179" y="-5" width="160" relative="1" as="geometry">
            <mxPoint x="760" y="1044" as="sourcePoint" />
            <mxPoint x="608" y="975" as="targetPoint" />
            <mxPoint as="offset" />
            <Array as="points">
              <mxPoint x="500" y="1090" />
              <mxPoint x="500" y="1020" />
            </Array>
          </mxGeometry>
        </mxCell>
        <mxCell id="QToZWzW9HsHZbET4avzT-26" value="Hereda" style="endArrow=block;endSize=16;endFill=0;html=1;rounded=0;exitX=0.5;exitY=0;exitDx=0;exitDy=0;entryX=0.5;entryY=1.067;entryDx=0;entryDy=0;entryPerimeter=0;" parent="1" source="qrfRz9lv0cAQo2jDePgL-8" target="QToZWzW9HsHZbET4avzT-3" edge="1">
          <mxGeometry x="0.2377" y="5" width="160" relative="1" as="geometry">
            <mxPoint x="530" y="1134" as="sourcePoint" />
            <mxPoint x="610" y="974" as="targetPoint" />
            <mxPoint as="offset" />
            <Array as="points">
              <mxPoint x="770" y="1030" />
              <mxPoint x="700" y="1030" />
              <mxPoint x="610" y="1040" />
            </Array>
          </mxGeometry>
        </mxCell>
        <mxCell id="QToZWzW9HsHZbET4avzT-27" value="DIÁLOGOS" style="swimlane;fontStyle=1;align=center;verticalAlign=top;childLayout=stackLayout;horizontal=1;startSize=26;horizontalStack=0;resizeParent=1;resizeParentMax=0;resizeLast=0;collapsible=1;marginBottom=0;strokeColor=default;fillColor=none;" parent="1" vertex="1">
          <mxGeometry x="300" y="1020" width="160" height="86" as="geometry" />
        </mxCell>
        <mxCell id="QToZWzW9HsHZbET4avzT-28" value="Textos" style="text;strokeColor=none;fillColor=none;align=center;verticalAlign=middle;spacingLeft=4;spacingRight=4;overflow=hidden;rotatable=0;points=[[0,0.5],[1,0.5]];portConstraint=eastwest;" parent="QToZWzW9HsHZbET4avzT-27" vertex="1">
          <mxGeometry y="26" width="160" height="26" as="geometry" />
        </mxCell>
        <mxCell id="QToZWzW9HsHZbET4avzT-29" value="" style="line;strokeWidth=1;fillColor=none;align=left;verticalAlign=middle;spacingTop=-1;spacingLeft=3;spacingRight=3;rotatable=0;labelPosition=right;points=[];portConstraint=eastwest;" parent="QToZWzW9HsHZbET4avzT-27" vertex="1">
          <mxGeometry y="52" width="160" height="8" as="geometry" />
        </mxCell>
        <mxCell id="QToZWzW9HsHZbET4avzT-30" value="Lectura de input????" style="text;strokeColor=none;fillColor=none;align=center;verticalAlign=middle;spacingLeft=4;spacingRight=4;overflow=hidden;rotatable=0;points=[[0,0.5],[1,0.5]];portConstraint=eastwest;" parent="QToZWzW9HsHZbET4avzT-27" vertex="1">
          <mxGeometry y="60" width="160" height="26" as="geometry" />
        </mxCell>
        <mxCell id="QToZWzW9HsHZbET4avzT-32" value="Hereda" style="endArrow=block;endSize=16;endFill=0;html=1;rounded=0;exitX=0.5;exitY=0;exitDx=0;exitDy=0;entryX=0.549;entryY=1.023;entryDx=0;entryDy=0;entryPerimeter=0;" parent="1" source="qrfRz9lv0cAQo2jDePgL-19" edge="1" target="QToZWzW9HsHZbET4avzT-53">
          <mxGeometry x="-0.1387" y="-4" width="160" relative="1" as="geometry">
            <mxPoint x="530" y="1134" as="sourcePoint" />
            <mxPoint x="1130" y="584" as="targetPoint" />
            <mxPoint as="offset" />
          </mxGeometry>
        </mxCell>
        <mxCell id="QToZWzW9HsHZbET4avzT-33" value="Hereda" style="endArrow=block;endSize=16;endFill=0;html=1;rounded=0;exitX=0.5;exitY=0;exitDx=0;exitDy=0;entryX=0.577;entryY=1.146;entryDx=0;entryDy=0;entryPerimeter=0;" parent="1" source="qrfRz9lv0cAQo2jDePgL-22" target="QToZWzW9HsHZbET4avzT-53" edge="1">
          <mxGeometry x="-0.4179" y="-5" width="160" relative="1" as="geometry">
            <mxPoint x="740" y="1134" as="sourcePoint" />
            <mxPoint x="620" y="976.01" as="targetPoint" />
            <mxPoint as="offset" />
          </mxGeometry>
        </mxCell>
        <mxCell id="QToZWzW9HsHZbET4avzT-34" value="Llama y&lt;br&gt;&amp;nbsp;hace cambios" style="endArrow=block;endFill=1;html=1;edgeStyle=orthogonalEdgeStyle;align=left;verticalAlign=top;rounded=0;exitX=0;exitY=0.5;exitDx=0;exitDy=0;entryX=0.497;entryY=1.167;entryDx=0;entryDy=0;entryPerimeter=0;" parent="1" source="qrfRz9lv0cAQo2jDePgL-20" target="qrfRz9lv0cAQo2jDePgL-13" edge="1">
          <mxGeometry x="0.6479" y="-20" relative="1" as="geometry">
            <mxPoint x="690" y="789" as="sourcePoint" />
            <mxPoint x="830" y="860.988" as="targetPoint" />
            <mxPoint x="-20" y="20" as="offset" />
            <Array as="points">
              <mxPoint x="970" y="969" />
              <mxPoint x="970" y="989" />
              <mxPoint x="880" y="989" />
              <mxPoint x="880" y="934" />
              <mxPoint x="854" y="934" />
              <mxPoint x="854" y="914" />
              <mxPoint x="830" y="914" />
            </Array>
          </mxGeometry>
        </mxCell>
        <mxCell id="QToZWzW9HsHZbET4avzT-37" value="PUZLES" style="swimlane;fontStyle=1;align=center;verticalAlign=top;childLayout=stackLayout;horizontal=1;startSize=26;horizontalStack=0;resizeParent=1;resizeParentMax=0;resizeLast=0;collapsible=1;marginBottom=0;strokeColor=default;fillColor=none;" parent="1" vertex="1">
          <mxGeometry x="965" y="1072" width="160" height="78" as="geometry" />
        </mxCell>
        <mxCell id="QToZWzW9HsHZbET4avzT-58" value=" " style="text;strokeColor=default;fillColor=none;align=left;verticalAlign=top;spacingLeft=4;spacingRight=4;overflow=hidden;rotatable=0;points=[[0,0.5],[1,0.5]];portConstraint=eastwest;" parent="QToZWzW9HsHZbET4avzT-37" vertex="1">
          <mxGeometry y="26" width="160" height="26" as="geometry" />
        </mxCell>
        <mxCell id="QToZWzW9HsHZbET4avzT-38" value="Función para resolver" style="text;strokeColor=none;fillColor=none;align=left;verticalAlign=top;spacingLeft=4;spacingRight=4;overflow=hidden;rotatable=0;points=[[0,0.5],[1,0.5]];portConstraint=eastwest;" parent="QToZWzW9HsHZbET4avzT-37" vertex="1">
          <mxGeometry y="52" width="160" height="26" as="geometry" />
        </mxCell>
        <mxCell id="QToZWzW9HsHZbET4avzT-41" value="Hereda" style="endArrow=block;endSize=16;endFill=0;html=1;rounded=0;exitX=0.5;exitY=0;exitDx=0;exitDy=0;entryX=0.53;entryY=1.008;entryDx=0;entryDy=0;entryPerimeter=0;" parent="1" source="QToZWzW9HsHZbET4avzT-37" target="QToZWzW9HsHZbET4avzT-57" edge="1">
          <mxGeometry x="-0.1387" y="-4" width="160" relative="1" as="geometry">
            <mxPoint x="1010" y="954" as="sourcePoint" />
            <mxPoint x="1050" y="1014" as="targetPoint" />
            <mxPoint as="offset" />
          </mxGeometry>
        </mxCell>
        <mxCell id="QToZWzW9HsHZbET4avzT-45" value="Hereda" style="endArrow=block;endSize=16;endFill=0;html=1;rounded=0;exitX=0.558;exitY=0.021;exitDx=0;exitDy=0;entryX=0;entryY=0.5;entryDx=0;entryDy=0;exitPerimeter=0;" parent="1" source="QToZWzW9HsHZbET4avzT-27" target="QToZWzW9HsHZbET4avzT-18" edge="1">
          <mxGeometry x="-0.1387" y="-4" width="160" relative="1" as="geometry">
            <mxPoint x="1010" y="954" as="sourcePoint" />
            <mxPoint x="1096.02" y="833.01" as="targetPoint" />
            <mxPoint as="offset" />
            <Array as="points">
              <mxPoint x="389" y="970" />
              <mxPoint x="370" y="970" />
              <mxPoint x="370" y="812" />
              <mxPoint x="470" y="812" />
            </Array>
          </mxGeometry>
        </mxCell>
        <mxCell id="QToZWzW9HsHZbET4avzT-52" value="Hereda" style="endArrow=block;endSize=16;endFill=0;html=1;rounded=0;" parent="1" source="QToZWzW9HsHZbET4avzT-2" edge="1">
          <mxGeometry x="-0.4179" y="-5" width="160" relative="1" as="geometry">
            <mxPoint x="680" y="1173" as="sourcePoint" />
            <mxPoint x="610" y="834" as="targetPoint" />
            <mxPoint as="offset" />
          </mxGeometry>
        </mxCell>
        <mxCell id="QToZWzW9HsHZbET4avzT-59" value="Hereda" style="endArrow=block;endSize=16;endFill=0;html=1;rounded=0;exitX=0.5;exitY=0;exitDx=0;exitDy=0;entryX=0.479;entryY=1.1;entryDx=0;entryDy=0;entryPerimeter=0;" parent="1" source="qrfRz9lv0cAQo2jDePgL-25" target="QToZWzW9HsHZbET4avzT-38" edge="1">
          <mxGeometry x="-0.1387" y="-4" width="160" relative="1" as="geometry">
            <mxPoint x="1055" y="1082" as="sourcePoint" />
            <mxPoint x="1050" y="1184" as="targetPoint" />
            <mxPoint as="offset" />
          </mxGeometry>
        </mxCell>
        <mxCell id="QToZWzW9HsHZbET4avzT-60" value="Hereda" style="endArrow=block;endSize=16;endFill=0;html=1;rounded=0;entryX=0.544;entryY=1.069;entryDx=0;entryDy=0;entryPerimeter=0;exitX=0.5;exitY=0;exitDx=0;exitDy=0;" parent="1" source="qrfRz9lv0cAQo2jDePgL-33" target="QToZWzW9HsHZbET4avzT-38" edge="1">
          <mxGeometry x="-0.1387" y="-4" width="160" relative="1" as="geometry">
            <mxPoint x="950" y="1264" as="sourcePoint" />
            <mxPoint x="1051.64" y="1162.6" as="targetPoint" />
            <mxPoint as="offset" />
          </mxGeometry>
        </mxCell>
        <mxCell id="gY_pJ6OisgMeV_vmFaXO-3" value="" style="endArrow=diamondThin;endFill=0;endSize=24;html=1;rounded=0;exitX=0.517;exitY=1.077;exitDx=0;exitDy=0;exitPerimeter=0;entryX=0;entryY=0.5;entryDx=0;entryDy=0;" edge="1" parent="1" source="QToZWzW9HsHZbET4avzT-30" target="qrfRz9lv0cAQo2jDePgL-6">
          <mxGeometry width="160" relative="1" as="geometry">
            <mxPoint x="720" y="1040" as="sourcePoint" />
            <mxPoint x="370" y="1240" as="targetPoint" />
            <Array as="points">
              <mxPoint x="290" y="1180" />
            </Array>
          </mxGeometry>
        </mxCell>
        <mxCell id="gY_pJ6OisgMeV_vmFaXO-4" value="Contiene" style="edgeLabel;html=1;align=center;verticalAlign=middle;resizable=0;points=[];" vertex="1" connectable="0" parent="gY_pJ6OisgMeV_vmFaXO-3">
          <mxGeometry x="0.3193" y="-1" relative="1" as="geometry">
            <mxPoint as="offset" />
          </mxGeometry>
        </mxCell>
        <mxCell id="gY_pJ6OisgMeV_vmFaXO-5" value="NPCs Objetos" style="swimlane;fontStyle=0;childLayout=stackLayout;horizontal=1;startSize=30;horizontalStack=0;resizeParent=1;resizeParentMax=0;resizeLast=0;collapsible=1;marginBottom=0;" vertex="1" parent="1">
          <mxGeometry x="560" y="1150" width="140" height="90" as="geometry">
            <mxRectangle y="1120" width="60" height="30" as="alternateBounds" />
          </mxGeometry>
        </mxCell>
        <mxCell id="gY_pJ6OisgMeV_vmFaXO-6" value="  " style="text;strokeColor=default;fillColor=none;align=center;verticalAlign=middle;spacingLeft=4;spacingRight=4;overflow=hidden;points=[[0,0.5],[1,0.5]];portConstraint=eastwest;rotatable=0;" vertex="1" parent="gY_pJ6OisgMeV_vmFaXO-5">
          <mxGeometry y="30" width="140" height="30" as="geometry" />
        </mxCell>
        <mxCell id="gY_pJ6OisgMeV_vmFaXO-7" value="Modifican puntuación" style="text;strokeColor=none;fillColor=none;align=center;verticalAlign=middle;spacingLeft=4;spacingRight=4;overflow=hidden;points=[[0,0.5],[1,0.5]];portConstraint=eastwest;rotatable=0;" vertex="1" parent="gY_pJ6OisgMeV_vmFaXO-5">
          <mxGeometry y="60" width="140" height="30" as="geometry" />
        </mxCell>
        <mxCell id="gY_pJ6OisgMeV_vmFaXO-8" value="Hereda" style="endArrow=block;endSize=16;endFill=0;html=1;rounded=0;exitX=0.5;exitY=0;exitDx=0;exitDy=0;" edge="1" parent="1" source="gY_pJ6OisgMeV_vmFaXO-5">
          <mxGeometry x="-0.4179" y="-5" width="160" relative="1" as="geometry">
            <mxPoint x="460" y="1149.9999999999998" as="sourcePoint" />
            <mxPoint x="530" y="1000" as="targetPoint" />
            <mxPoint as="offset" />
            <Array as="points">
              <mxPoint x="530" y="1070" />
            </Array>
          </mxGeometry>
        </mxCell>
      </root>
    </mxGraphModel>
  </diagram>
</mxfile>
